<mxfile host="app.diagrams.net" modified="2021-04-25T13:56:57.405Z" agent="5.0 (Windows NT 10.0; Win64; x64) AppleWebKit/537.36 (KHTML, like Gecko) Chrome/90.0.4430.85 Safari/537.36" etag="8iQ9CWLijxIsd2BINMjX" version="14.6.6" type="github">
  <diagram id="6a731a19-8d31-9384-78a2-239565b7b9f0" name="Page-1">
    <mxGraphModel dx="1038" dy="579" grid="1" gridSize="10" guides="1" tooltips="1" connect="1" arrows="1" fold="1" page="1" pageScale="1" pageWidth="4681" pageHeight="3300" background="#ffffff" math="0" shadow="0">
      <root>
        <mxCell id="0" />
        <mxCell id="1" parent="0" />
        <mxCell id="5ejWRRyf0kLCTS8NGf_p-48" value="" style="rounded=0;whiteSpace=wrap;html=1;fillColor=none;dashed=1;" vertex="1" parent="1">
          <mxGeometry x="460" y="590" width="360" height="560" as="geometry" />
        </mxCell>
        <mxCell id="SmcHtSHSbykFVl87_0V5-1784" value="applyId" style="edgeStyle=orthogonalEdgeStyle;rounded=0;orthogonalLoop=1;jettySize=auto;html=1;" parent="1" source="SmcHtSHSbykFVl87_0V5-1779" target="SmcHtSHSbykFVl87_0V5-1780" edge="1">
          <mxGeometry relative="1" as="geometry" />
        </mxCell>
        <mxCell id="SmcHtSHSbykFVl87_0V5-1779" value="面试tab相关字段获取" style="rounded=1;whiteSpace=wrap;html=1;" parent="1" vertex="1">
          <mxGeometry x="250" y="20" width="120" height="40" as="geometry" />
        </mxCell>
        <mxCell id="SmcHtSHSbykFVl87_0V5-1785" value="interviewScheduleIds" style="edgeStyle=orthogonalEdgeStyle;rounded=0;orthogonalLoop=1;jettySize=auto;html=1;" parent="1" source="SmcHtSHSbykFVl87_0V5-1780" target="SmcHtSHSbykFVl87_0V5-1781" edge="1">
          <mxGeometry relative="1" as="geometry" />
        </mxCell>
        <mxCell id="SmcHtSHSbykFVl87_0V5-1792" value="" style="edgeStyle=orthogonalEdgeStyle;rounded=0;orthogonalLoop=1;jettySize=auto;html=1;dashed=1;dashPattern=1 2;" parent="1" source="SmcHtSHSbykFVl87_0V5-1780" target="SmcHtSHSbykFVl87_0V5-1788" edge="1">
          <mxGeometry relative="1" as="geometry" />
        </mxCell>
        <mxCell id="SmcHtSHSbykFVl87_0V5-1780" value="根据ApplyId获取面试数据" style="rounded=0;whiteSpace=wrap;html=1;" parent="1" vertex="1">
          <mxGeometry x="250" y="100" width="120" height="40" as="geometry" />
        </mxCell>
        <mxCell id="SmcHtSHSbykFVl87_0V5-1786" value="arrangementIds" style="edgeStyle=orthogonalEdgeStyle;rounded=0;orthogonalLoop=1;jettySize=auto;html=1;" parent="1" source="SmcHtSHSbykFVl87_0V5-1781" target="SmcHtSHSbykFVl87_0V5-1782" edge="1">
          <mxGeometry relative="1" as="geometry" />
        </mxCell>
        <mxCell id="SmcHtSHSbykFVl87_0V5-1781" value="获取面试日程数据" style="rounded=0;whiteSpace=wrap;html=1;" parent="1" vertex="1">
          <mxGeometry x="250" y="190" width="120" height="40" as="geometry" />
        </mxCell>
        <mxCell id="SmcHtSHSbykFVl87_0V5-1787" value="" style="edgeStyle=orthogonalEdgeStyle;rounded=0;orthogonalLoop=1;jettySize=auto;html=1;" parent="1" source="SmcHtSHSbykFVl87_0V5-1782" target="SmcHtSHSbykFVl87_0V5-1783" edge="1">
          <mxGeometry relative="1" as="geometry" />
        </mxCell>
        <mxCell id="SmcHtSHSbykFVl87_0V5-1793" value="" style="edgeStyle=orthogonalEdgeStyle;rounded=0;orthogonalLoop=1;jettySize=auto;html=1;dashed=1;dashPattern=1 2;" parent="1" source="SmcHtSHSbykFVl87_0V5-1782" target="SmcHtSHSbykFVl87_0V5-1789" edge="1">
          <mxGeometry relative="1" as="geometry" />
        </mxCell>
        <mxCell id="SmcHtSHSbykFVl87_0V5-1782" value="获取面试安排数据" style="rounded=0;whiteSpace=wrap;html=1;" parent="1" vertex="1">
          <mxGeometry x="250" y="270" width="120" height="40" as="geometry" />
        </mxCell>
        <mxCell id="SmcHtSHSbykFVl87_0V5-1783" value="组装面试tab数据model" style="rounded=0;whiteSpace=wrap;html=1;" parent="1" vertex="1">
          <mxGeometry x="250" y="340" width="120" height="40" as="geometry" />
        </mxCell>
        <mxCell id="SmcHtSHSbykFVl87_0V5-1788" value="答复状态&lt;br&gt;拒绝面试原因&lt;br&gt;自定义拒绝原因" style="text;html=1;strokeColor=#6c8ebf;fillColor=#dae8fc;align=center;verticalAlign=middle;whiteSpace=wrap;rounded=0;shadow=1;" parent="1" vertex="1">
          <mxGeometry x="110" y="90" width="100" height="60" as="geometry" />
        </mxCell>
        <mxCell id="SmcHtSHSbykFVl87_0V5-1789" value="面试安排人&lt;br&gt;&lt;div&gt;&lt;span&gt;安排时间&lt;/span&gt;&lt;/div&gt;面试形式&lt;br&gt;面试地点" style="text;html=1;strokeColor=#6c8ebf;fillColor=#dae8fc;align=center;verticalAlign=middle;whiteSpace=wrap;rounded=0;shadow=1;" parent="1" vertex="1">
          <mxGeometry x="110" y="255" width="100" height="70" as="geometry" />
        </mxCell>
        <mxCell id="SmcHtSHSbykFVl87_0V5-1818" value="" style="edgeStyle=orthogonalEdgeStyle;rounded=0;orthogonalLoop=1;jettySize=auto;html=1;" parent="1" source="SmcHtSHSbykFVl87_0V5-1794" target="SmcHtSHSbykFVl87_0V5-1816" edge="1">
          <mxGeometry relative="1" as="geometry" />
        </mxCell>
        <mxCell id="SmcHtSHSbykFVl87_0V5-1794" value="编辑面试权限" style="rounded=1;whiteSpace=wrap;html=1;" parent="1" vertex="1">
          <mxGeometry x="610" y="20" width="120" height="40" as="geometry" />
        </mxCell>
        <mxCell id="SmcHtSHSbykFVl87_0V5-1802" value="是" style="edgeStyle=orthogonalEdgeStyle;rounded=0;orthogonalLoop=1;jettySize=auto;html=1;" parent="1" source="SmcHtSHSbykFVl87_0V5-1796" target="SmcHtSHSbykFVl87_0V5-1799" edge="1">
          <mxGeometry relative="1" as="geometry" />
        </mxCell>
        <mxCell id="SmcHtSHSbykFVl87_0V5-1808" style="edgeStyle=orthogonalEdgeStyle;rounded=0;orthogonalLoop=1;jettySize=auto;html=1;" parent="1" source="SmcHtSHSbykFVl87_0V5-1796" edge="1">
          <mxGeometry relative="1" as="geometry">
            <mxPoint x="830" y="450" as="targetPoint" />
          </mxGeometry>
        </mxCell>
        <mxCell id="SmcHtSHSbykFVl87_0V5-1812" value="否" style="edgeLabel;html=1;align=center;verticalAlign=middle;resizable=0;points=[];" parent="SmcHtSHSbykFVl87_0V5-1808" vertex="1" connectable="0">
          <mxGeometry x="-0.7533" y="-2" relative="1" as="geometry">
            <mxPoint as="offset" />
          </mxGeometry>
        </mxCell>
        <mxCell id="SmcHtSHSbykFVl87_0V5-1796" value="个人面试、&lt;br&gt;集体面试" style="rhombus;whiteSpace=wrap;html=1;shadow=1;" parent="1" vertex="1">
          <mxGeometry x="615" y="180" width="110" height="50" as="geometry" />
        </mxCell>
        <mxCell id="SmcHtSHSbykFVl87_0V5-1797" value="有权限" style="rounded=0;whiteSpace=wrap;html=1;" parent="1" vertex="1">
          <mxGeometry x="615" y="450" width="110" height="40" as="geometry" />
        </mxCell>
        <mxCell id="SmcHtSHSbykFVl87_0V5-1798" value="无权限" style="rounded=0;whiteSpace=wrap;html=1;" parent="1" vertex="1">
          <mxGeometry x="780" y="450" width="110" height="40" as="geometry" />
        </mxCell>
        <mxCell id="SmcHtSHSbykFVl87_0V5-1803" value="是" style="edgeStyle=orthogonalEdgeStyle;rounded=0;orthogonalLoop=1;jettySize=auto;html=1;" parent="1" source="SmcHtSHSbykFVl87_0V5-1799" target="SmcHtSHSbykFVl87_0V5-1800" edge="1">
          <mxGeometry relative="1" as="geometry" />
        </mxCell>
        <mxCell id="SmcHtSHSbykFVl87_0V5-1810" value="否" style="edgeStyle=orthogonalEdgeStyle;rounded=0;orthogonalLoop=1;jettySize=auto;html=1;" parent="1" source="SmcHtSHSbykFVl87_0V5-1799" edge="1">
          <mxGeometry relative="1" as="geometry">
            <mxPoint x="830" y="450" as="targetPoint" />
          </mxGeometry>
        </mxCell>
        <mxCell id="SmcHtSHSbykFVl87_0V5-1799" value="是否为&lt;br&gt;面试安排人" style="rhombus;whiteSpace=wrap;html=1;shadow=1;" parent="1" vertex="1">
          <mxGeometry x="615" y="270" width="110" height="50" as="geometry" />
        </mxCell>
        <mxCell id="SmcHtSHSbykFVl87_0V5-1804" value="是" style="edgeStyle=orthogonalEdgeStyle;rounded=0;orthogonalLoop=1;jettySize=auto;html=1;" parent="1" source="SmcHtSHSbykFVl87_0V5-1800" target="SmcHtSHSbykFVl87_0V5-1797" edge="1">
          <mxGeometry relative="1" as="geometry" />
        </mxCell>
        <mxCell id="SmcHtSHSbykFVl87_0V5-1811" style="edgeStyle=orthogonalEdgeStyle;rounded=0;orthogonalLoop=1;jettySize=auto;html=1;" parent="1" source="SmcHtSHSbykFVl87_0V5-1800" edge="1">
          <mxGeometry relative="1" as="geometry">
            <mxPoint x="830" y="450" as="targetPoint" />
          </mxGeometry>
        </mxCell>
        <mxCell id="SmcHtSHSbykFVl87_0V5-1813" value="否" style="edgeLabel;html=1;align=center;verticalAlign=middle;resizable=0;points=[];" parent="SmcHtSHSbykFVl87_0V5-1811" vertex="1" connectable="0">
          <mxGeometry x="-0.5178" y="2" relative="1" as="geometry">
            <mxPoint as="offset" />
          </mxGeometry>
        </mxCell>
        <mxCell id="SmcHtSHSbykFVl87_0V5-1815" value="" style="edgeStyle=orthogonalEdgeStyle;rounded=0;orthogonalLoop=1;jettySize=auto;html=1;dashed=1;dashPattern=1 2;" parent="1" source="SmcHtSHSbykFVl87_0V5-1800" target="SmcHtSHSbykFVl87_0V5-1814" edge="1">
          <mxGeometry relative="1" as="geometry" />
        </mxCell>
        <mxCell id="SmcHtSHSbykFVl87_0V5-1800" value="是否为相应身份" style="rhombus;whiteSpace=wrap;html=1;shadow=1;" parent="1" vertex="1">
          <mxGeometry x="615" y="360" width="110" height="50" as="geometry" />
        </mxCell>
        <mxCell id="SmcHtSHSbykFVl87_0V5-1814" value="招聘管理员&lt;br&gt;招聘专员&lt;br&gt;业务经理&lt;br&gt;用人部门主管&lt;br&gt;实施顾问" style="text;html=1;strokeColor=#6c8ebf;fillColor=#dae8fc;align=center;verticalAlign=middle;whiteSpace=wrap;rounded=0;shadow=1;" parent="1" vertex="1">
          <mxGeometry x="500" y="345" width="90" height="80" as="geometry" />
        </mxCell>
        <mxCell id="SmcHtSHSbykFVl87_0V5-1819" value="否" style="edgeStyle=orthogonalEdgeStyle;rounded=0;orthogonalLoop=1;jettySize=auto;html=1;" parent="1" source="SmcHtSHSbykFVl87_0V5-1816" target="SmcHtSHSbykFVl87_0V5-1796" edge="1">
          <mxGeometry relative="1" as="geometry" />
        </mxCell>
        <mxCell id="SmcHtSHSbykFVl87_0V5-1821" value="是" style="edgeStyle=orthogonalEdgeStyle;rounded=0;orthogonalLoop=1;jettySize=auto;html=1;" parent="1" source="SmcHtSHSbykFVl87_0V5-1816" target="SmcHtSHSbykFVl87_0V5-1820" edge="1">
          <mxGeometry relative="1" as="geometry" />
        </mxCell>
        <mxCell id="SmcHtSHSbykFVl87_0V5-1816" value="是否为推荐职位&lt;br&gt;或elink" style="rhombus;whiteSpace=wrap;html=1;shadow=1;" parent="1" vertex="1">
          <mxGeometry x="615" y="90" width="110" height="50" as="geometry" />
        </mxCell>
        <mxCell id="SmcHtSHSbykFVl87_0V5-1820" value="按钮禁用" style="rounded=0;whiteSpace=wrap;html=1;" parent="1" vertex="1">
          <mxGeometry x="810" y="95" width="110" height="40" as="geometry" />
        </mxCell>
        <mxCell id="SmcHtSHSbykFVl87_0V5-1825" value="" style="edgeStyle=orthogonalEdgeStyle;rounded=0;orthogonalLoop=1;jettySize=auto;html=1;" parent="1" source="SmcHtSHSbykFVl87_0V5-1822" target="SmcHtSHSbykFVl87_0V5-1823" edge="1">
          <mxGeometry relative="1" as="geometry" />
        </mxCell>
        <mxCell id="SmcHtSHSbykFVl87_0V5-1822" value="完成评价给HR发通知" style="rounded=1;whiteSpace=wrap;html=1;" parent="1" vertex="1">
          <mxGeometry x="1120" y="20" width="120" height="40" as="geometry" />
        </mxCell>
        <mxCell id="SmcHtSHSbykFVl87_0V5-1826" value="面试形式" style="edgeStyle=orthogonalEdgeStyle;rounded=0;orthogonalLoop=1;jettySize=auto;html=1;" parent="1" source="SmcHtSHSbykFVl87_0V5-1823" target="SmcHtSHSbykFVl87_0V5-1824" edge="1">
          <mxGeometry relative="1" as="geometry" />
        </mxCell>
        <mxCell id="SmcHtSHSbykFVl87_0V5-1823" value="消费端Handle" style="rounded=0;whiteSpace=wrap;html=1;" parent="1" vertex="1">
          <mxGeometry x="1120" y="100" width="120" height="40" as="geometry" />
        </mxCell>
        <mxCell id="SmcHtSHSbykFVl87_0V5-1831" value="" style="edgeStyle=orthogonalEdgeStyle;rounded=0;orthogonalLoop=1;jettySize=auto;html=1;" parent="1" source="SmcHtSHSbykFVl87_0V5-1824" target="SmcHtSHSbykFVl87_0V5-1827" edge="1">
          <mxGeometry relative="1" as="geometry" />
        </mxCell>
        <mxCell id="SmcHtSHSbykFVl87_0V5-1832" value="是" style="edgeLabel;html=1;align=center;verticalAlign=middle;resizable=0;points=[];" parent="SmcHtSHSbykFVl87_0V5-1831" vertex="1" connectable="0">
          <mxGeometry x="-0.25" y="2" relative="1" as="geometry">
            <mxPoint x="1" as="offset" />
          </mxGeometry>
        </mxCell>
        <mxCell id="SmcHtSHSbykFVl87_0V5-1833" style="edgeStyle=orthogonalEdgeStyle;rounded=0;orthogonalLoop=1;jettySize=auto;html=1;" parent="1" source="SmcHtSHSbykFVl87_0V5-1824" target="SmcHtSHSbykFVl87_0V5-1828" edge="1">
          <mxGeometry relative="1" as="geometry">
            <Array as="points">
              <mxPoint x="1290" y="218" />
            </Array>
          </mxGeometry>
        </mxCell>
        <mxCell id="SmcHtSHSbykFVl87_0V5-1834" value="否" style="edgeLabel;html=1;align=center;verticalAlign=middle;resizable=0;points=[];" parent="SmcHtSHSbykFVl87_0V5-1833" vertex="1" connectable="0">
          <mxGeometry x="-0.02" relative="1" as="geometry">
            <mxPoint as="offset" />
          </mxGeometry>
        </mxCell>
        <mxCell id="SmcHtSHSbykFVl87_0V5-1824" value="判断是否为&lt;br&gt;个人面试" style="rhombus;whiteSpace=wrap;html=1;shadow=1;" parent="1" vertex="1">
          <mxGeometry x="1122.5" y="190" width="115" height="55" as="geometry" />
        </mxCell>
        <mxCell id="SmcHtSHSbykFVl87_0V5-1835" style="edgeStyle=orthogonalEdgeStyle;rounded=0;orthogonalLoop=1;jettySize=auto;html=1;" parent="1" source="SmcHtSHSbykFVl87_0V5-1827" target="SmcHtSHSbykFVl87_0V5-1829" edge="1">
          <mxGeometry relative="1" as="geometry">
            <Array as="points">
              <mxPoint x="1050" y="340" />
              <mxPoint x="1180" y="340" />
            </Array>
          </mxGeometry>
        </mxCell>
        <mxCell id="SmcHtSHSbykFVl87_0V5-1827" value="【查看详情】&lt;br&gt;应聘者详情页链接" style="rounded=0;whiteSpace=wrap;html=1;" parent="1" vertex="1">
          <mxGeometry x="990" y="285" width="120" height="40" as="geometry" />
        </mxCell>
        <mxCell id="SmcHtSHSbykFVl87_0V5-1836" style="edgeStyle=orthogonalEdgeStyle;rounded=0;orthogonalLoop=1;jettySize=auto;html=1;entryX=0.5;entryY=0;entryDx=0;entryDy=0;" parent="1" source="SmcHtSHSbykFVl87_0V5-1828" target="SmcHtSHSbykFVl87_0V5-1829" edge="1">
          <mxGeometry relative="1" as="geometry">
            <Array as="points">
              <mxPoint x="1290" y="340" />
              <mxPoint x="1180" y="340" />
            </Array>
          </mxGeometry>
        </mxCell>
        <mxCell id="SmcHtSHSbykFVl87_0V5-1828" value="【查看详情】&lt;br&gt;面试详情页链接" style="rounded=0;whiteSpace=wrap;html=1;" parent="1" vertex="1">
          <mxGeometry x="1220" y="285" width="120" height="40" as="geometry" />
        </mxCell>
        <mxCell id="SmcHtSHSbykFVl87_0V5-1837" value="" style="edgeStyle=orthogonalEdgeStyle;rounded=0;orthogonalLoop=1;jettySize=auto;html=1;" parent="1" source="SmcHtSHSbykFVl87_0V5-1829" target="SmcHtSHSbykFVl87_0V5-1830" edge="1">
          <mxGeometry relative="1" as="geometry" />
        </mxCell>
        <mxCell id="SmcHtSHSbykFVl87_0V5-1829" value="推送通知" style="rounded=0;whiteSpace=wrap;html=1;" parent="1" vertex="1">
          <mxGeometry x="1120" y="380" width="120" height="40" as="geometry" />
        </mxCell>
        <mxCell id="SmcHtSHSbykFVl87_0V5-1830" value="结束" style="rounded=1;whiteSpace=wrap;html=1;" parent="1" vertex="1">
          <mxGeometry x="1120" y="450" width="120" height="40" as="geometry" />
        </mxCell>
        <mxCell id="SmcHtSHSbykFVl87_0V5-1838" value="个人面试" style="text;html=1;strokeColor=#6c8ebf;fillColor=#dae8fc;align=center;verticalAlign=middle;whiteSpace=wrap;rounded=0;shadow=1;" parent="1" vertex="1">
          <mxGeometry x="970" y="255" width="60" height="20" as="geometry" />
        </mxCell>
        <mxCell id="SmcHtSHSbykFVl87_0V5-1839" value="集体面试&lt;br&gt;分组面试" style="text;html=1;strokeColor=#6c8ebf;fillColor=#dae8fc;align=center;verticalAlign=middle;whiteSpace=wrap;rounded=0;shadow=1;" parent="1" vertex="1">
          <mxGeometry x="1360" y="285" width="70" height="35" as="geometry" />
        </mxCell>
        <mxCell id="5ejWRRyf0kLCTS8NGf_p-11" value="" style="edgeStyle=orthogonalEdgeStyle;rounded=0;orthogonalLoop=1;jettySize=auto;html=1;" edge="1" parent="1" source="5ejWRRyf0kLCTS8NGf_p-1" target="5ejWRRyf0kLCTS8NGf_p-2">
          <mxGeometry relative="1" as="geometry" />
        </mxCell>
        <mxCell id="5ejWRRyf0kLCTS8NGf_p-1" value="安排面试支持&lt;br&gt;邀请更新简历" style="rounded=1;whiteSpace=wrap;html=1;" vertex="1" parent="1">
          <mxGeometry x="270" y="580" width="120" height="40" as="geometry" />
        </mxCell>
        <mxCell id="5ejWRRyf0kLCTS8NGf_p-13" value="" style="edgeStyle=orthogonalEdgeStyle;rounded=0;orthogonalLoop=1;jettySize=auto;html=1;" edge="1" parent="1" source="5ejWRRyf0kLCTS8NGf_p-2" target="5ejWRRyf0kLCTS8NGf_p-3">
          <mxGeometry relative="1" as="geometry" />
        </mxCell>
        <mxCell id="5ejWRRyf0kLCTS8NGf_p-2" value="安排面试" style="rounded=0;whiteSpace=wrap;html=1;" vertex="1" parent="1">
          <mxGeometry x="270" y="660" width="120" height="40" as="geometry" />
        </mxCell>
        <mxCell id="5ejWRRyf0kLCTS8NGf_p-16" style="edgeStyle=orthogonalEdgeStyle;rounded=0;orthogonalLoop=1;jettySize=auto;html=1;entryX=0;entryY=0.25;entryDx=0;entryDy=0;" edge="1" parent="1" source="5ejWRRyf0kLCTS8NGf_p-3" target="5ejWRRyf0kLCTS8NGf_p-5">
          <mxGeometry relative="1" as="geometry">
            <Array as="points">
              <mxPoint x="210" y="765" />
              <mxPoint x="210" y="1060" />
            </Array>
          </mxGeometry>
        </mxCell>
        <mxCell id="5ejWRRyf0kLCTS8NGf_p-27" value="关闭" style="edgeLabel;html=1;align=center;verticalAlign=middle;resizable=0;points=[];" vertex="1" connectable="0" parent="5ejWRRyf0kLCTS8NGf_p-16">
          <mxGeometry x="-0.2667" y="-2" relative="1" as="geometry">
            <mxPoint as="offset" />
          </mxGeometry>
        </mxCell>
        <mxCell id="5ejWRRyf0kLCTS8NGf_p-31" value="开启" style="edgeStyle=orthogonalEdgeStyle;rounded=0;orthogonalLoop=1;jettySize=auto;html=1;" edge="1" parent="1" source="5ejWRRyf0kLCTS8NGf_p-3" target="5ejWRRyf0kLCTS8NGf_p-29">
          <mxGeometry relative="1" as="geometry" />
        </mxCell>
        <mxCell id="5ejWRRyf0kLCTS8NGf_p-3" value="邀请更新简历&lt;br&gt;开关" style="rhombus;whiteSpace=wrap;html=1;shadow=1;" vertex="1" parent="1">
          <mxGeometry x="275" y="740" width="110" height="50" as="geometry" />
        </mxCell>
        <mxCell id="5ejWRRyf0kLCTS8NGf_p-39" value="" style="edgeStyle=orthogonalEdgeStyle;rounded=0;orthogonalLoop=1;jettySize=auto;html=1;" edge="1" parent="1" source="5ejWRRyf0kLCTS8NGf_p-4" target="5ejWRRyf0kLCTS8NGf_p-38">
          <mxGeometry relative="1" as="geometry" />
        </mxCell>
        <mxCell id="5ejWRRyf0kLCTS8NGf_p-4" value="简历模板、有效时间用户级记忆" style="rounded=0;whiteSpace=wrap;html=1;" vertex="1" parent="1">
          <mxGeometry x="270" y="900" width="120" height="40" as="geometry" />
        </mxCell>
        <mxCell id="5ejWRRyf0kLCTS8NGf_p-17" style="edgeStyle=orthogonalEdgeStyle;rounded=0;orthogonalLoop=1;jettySize=auto;html=1;entryX=0;entryY=0.5;entryDx=0;entryDy=0;" edge="1" parent="1" source="5ejWRRyf0kLCTS8NGf_p-5" target="5ejWRRyf0kLCTS8NGf_p-6">
          <mxGeometry relative="1" as="geometry" />
        </mxCell>
        <mxCell id="5ejWRRyf0kLCTS8NGf_p-46" value="" style="edgeStyle=orthogonalEdgeStyle;rounded=0;orthogonalLoop=1;jettySize=auto;html=1;" edge="1" parent="1" source="5ejWRRyf0kLCTS8NGf_p-5" target="5ejWRRyf0kLCTS8NGf_p-41">
          <mxGeometry relative="1" as="geometry" />
        </mxCell>
        <mxCell id="5ejWRRyf0kLCTS8NGf_p-5" value="推送安排面试消息" style="rounded=0;whiteSpace=wrap;html=1;" vertex="1" parent="1">
          <mxGeometry x="270" y="1050" width="120" height="40" as="geometry" />
        </mxCell>
        <mxCell id="5ejWRRyf0kLCTS8NGf_p-18" value="开启" style="edgeStyle=orthogonalEdgeStyle;rounded=0;orthogonalLoop=1;jettySize=auto;html=1;" edge="1" parent="1" source="5ejWRRyf0kLCTS8NGf_p-6" target="5ejWRRyf0kLCTS8NGf_p-7">
          <mxGeometry relative="1" as="geometry" />
        </mxCell>
        <mxCell id="5ejWRRyf0kLCTS8NGf_p-6" value="邀请更新简历&lt;br&gt;开关" style="rhombus;whiteSpace=wrap;html=1;shadow=1;" vertex="1" parent="1">
          <mxGeometry x="575" y="650" width="110" height="50" as="geometry" />
        </mxCell>
        <mxCell id="5ejWRRyf0kLCTS8NGf_p-19" value="" style="edgeStyle=orthogonalEdgeStyle;rounded=0;orthogonalLoop=1;jettySize=auto;html=1;" edge="1" parent="1" source="5ejWRRyf0kLCTS8NGf_p-7" target="5ejWRRyf0kLCTS8NGf_p-8">
          <mxGeometry relative="1" as="geometry" />
        </mxCell>
        <mxCell id="5ejWRRyf0kLCTS8NGf_p-7" value="邀请成功" style="rhombus;whiteSpace=wrap;html=1;shadow=1;" vertex="1" parent="1">
          <mxGeometry x="575" y="745" width="110" height="50" as="geometry" />
        </mxCell>
        <mxCell id="5ejWRRyf0kLCTS8NGf_p-20" value="" style="edgeStyle=orthogonalEdgeStyle;rounded=0;orthogonalLoop=1;jettySize=auto;html=1;" edge="1" parent="1" source="5ejWRRyf0kLCTS8NGf_p-8" target="5ejWRRyf0kLCTS8NGf_p-9">
          <mxGeometry relative="1" as="geometry" />
        </mxCell>
        <mxCell id="5ejWRRyf0kLCTS8NGf_p-8" value="更新应聘者相关字段" style="rounded=0;whiteSpace=wrap;html=1;" vertex="1" parent="1">
          <mxGeometry x="570" y="835" width="120" height="40" as="geometry" />
        </mxCell>
        <mxCell id="5ejWRRyf0kLCTS8NGf_p-21" value="" style="edgeStyle=orthogonalEdgeStyle;rounded=0;orthogonalLoop=1;jettySize=auto;html=1;" edge="1" parent="1" source="5ejWRRyf0kLCTS8NGf_p-9" target="5ejWRRyf0kLCTS8NGf_p-10">
          <mxGeometry relative="1" as="geometry" />
        </mxCell>
        <mxCell id="5ejWRRyf0kLCTS8NGf_p-9" value="应聘者面试通知中添加邀请更新简历链接" style="rounded=0;whiteSpace=wrap;html=1;" vertex="1" parent="1">
          <mxGeometry x="570" y="915" width="120" height="40" as="geometry" />
        </mxCell>
        <mxCell id="5ejWRRyf0kLCTS8NGf_p-24" value="" style="edgeStyle=orthogonalEdgeStyle;rounded=0;orthogonalLoop=1;jettySize=auto;html=1;" edge="1" parent="1" source="5ejWRRyf0kLCTS8NGf_p-10" target="5ejWRRyf0kLCTS8NGf_p-23">
          <mxGeometry relative="1" as="geometry" />
        </mxCell>
        <mxCell id="5ejWRRyf0kLCTS8NGf_p-10" value="添加邀请更新简历&lt;br&gt;操作记录" style="rounded=0;whiteSpace=wrap;html=1;" vertex="1" parent="1">
          <mxGeometry x="570" y="995" width="120" height="40" as="geometry" />
        </mxCell>
        <mxCell id="5ejWRRyf0kLCTS8NGf_p-23" value="结束" style="rounded=1;whiteSpace=wrap;html=1;" vertex="1" parent="1">
          <mxGeometry x="570" y="1067.5" width="120" height="40" as="geometry" />
        </mxCell>
        <mxCell id="5ejWRRyf0kLCTS8NGf_p-37" value="" style="edgeStyle=orthogonalEdgeStyle;rounded=0;orthogonalLoop=1;jettySize=auto;html=1;" edge="1" parent="1" source="5ejWRRyf0kLCTS8NGf_p-29" target="5ejWRRyf0kLCTS8NGf_p-4">
          <mxGeometry relative="1" as="geometry" />
        </mxCell>
        <mxCell id="5ejWRRyf0kLCTS8NGf_p-29" value="校验应聘者联系方式" style="rounded=0;whiteSpace=wrap;html=1;" vertex="1" parent="1">
          <mxGeometry x="270" y="830" width="120" height="40" as="geometry" />
        </mxCell>
        <mxCell id="5ejWRRyf0kLCTS8NGf_p-40" value="" style="edgeStyle=orthogonalEdgeStyle;rounded=0;orthogonalLoop=1;jettySize=auto;html=1;" edge="1" parent="1" source="5ejWRRyf0kLCTS8NGf_p-38" target="5ejWRRyf0kLCTS8NGf_p-5">
          <mxGeometry relative="1" as="geometry" />
        </mxCell>
        <mxCell id="5ejWRRyf0kLCTS8NGf_p-38" value="保存面试安排等" style="rounded=0;whiteSpace=wrap;html=1;" vertex="1" parent="1">
          <mxGeometry x="270" y="970" width="120" height="40" as="geometry" />
        </mxCell>
        <mxCell id="5ejWRRyf0kLCTS8NGf_p-47" value="" style="edgeStyle=orthogonalEdgeStyle;rounded=0;orthogonalLoop=1;jettySize=auto;html=1;" edge="1" parent="1" source="5ejWRRyf0kLCTS8NGf_p-41" target="5ejWRRyf0kLCTS8NGf_p-42">
          <mxGeometry relative="1" as="geometry" />
        </mxCell>
        <mxCell id="5ejWRRyf0kLCTS8NGf_p-41" value="返回相应提示信息" style="rounded=0;whiteSpace=wrap;html=1;" vertex="1" parent="1">
          <mxGeometry x="270" y="1120" width="120" height="40" as="geometry" />
        </mxCell>
        <mxCell id="5ejWRRyf0kLCTS8NGf_p-42" value="结束" style="rounded=1;whiteSpace=wrap;html=1;" vertex="1" parent="1">
          <mxGeometry x="270" y="1190" width="120" height="40" as="geometry" />
        </mxCell>
        <mxCell id="5ejWRRyf0kLCTS8NGf_p-49" value="消费端逻辑" style="text;html=1;strokeColor=none;fillColor=none;align=center;verticalAlign=middle;whiteSpace=wrap;rounded=0;dashed=1;" vertex="1" parent="1">
          <mxGeometry x="480" y="600" width="80" height="20" as="geometry" />
        </mxCell>
        <mxCell id="5ejWRRyf0kLCTS8NGf_p-51" value="N人联系方式有误，无法邀请" style="text;html=1;strokeColor=#6c8ebf;fillColor=#dae8fc;align=center;verticalAlign=middle;whiteSpace=wrap;rounded=0;dashed=1;" vertex="1" parent="1">
          <mxGeometry x="150" y="1125" width="100" height="30" as="geometry" />
        </mxCell>
        <mxCell id="5ejWRRyf0kLCTS8NGf_p-52" value="邀请更新简历状态&lt;br&gt;邀请更新简历时间&lt;br&gt;邀请更新简历反馈时间" style="text;html=1;strokeColor=#6c8ebf;fillColor=#dae8fc;align=center;verticalAlign=middle;whiteSpace=wrap;rounded=0;dashed=1;" vertex="1" parent="1">
          <mxGeometry x="700" y="825" width="130" height="50" as="geometry" />
        </mxCell>
        <mxCell id="5ejWRRyf0kLCTS8NGf_p-81" value="" style="edgeStyle=orthogonalEdgeStyle;rounded=0;orthogonalLoop=1;jettySize=auto;html=1;" edge="1" parent="1" source="5ejWRRyf0kLCTS8NGf_p-55" target="5ejWRRyf0kLCTS8NGf_p-56">
          <mxGeometry relative="1" as="geometry" />
        </mxCell>
        <mxCell id="5ejWRRyf0kLCTS8NGf_p-55" value="获取当前申请下已完成的面试评价概览" style="rounded=1;whiteSpace=wrap;html=1;" vertex="1" parent="1">
          <mxGeometry x="1210" y="580" width="120" height="40" as="geometry" />
        </mxCell>
        <mxCell id="5ejWRRyf0kLCTS8NGf_p-70" value="" style="edgeStyle=orthogonalEdgeStyle;rounded=0;orthogonalLoop=1;jettySize=auto;html=1;" edge="1" parent="1" source="5ejWRRyf0kLCTS8NGf_p-56" target="5ejWRRyf0kLCTS8NGf_p-57">
          <mxGeometry relative="1" as="geometry" />
        </mxCell>
        <mxCell id="5ejWRRyf0kLCTS8NGf_p-56" value="applyId获取评价结果非空的面试评价数据" style="rounded=0;whiteSpace=wrap;html=1;" vertex="1" parent="1">
          <mxGeometry x="1210" y="660" width="120" height="40" as="geometry" />
        </mxCell>
        <mxCell id="5ejWRRyf0kLCTS8NGf_p-74" value="" style="edgeStyle=orthogonalEdgeStyle;rounded=0;orthogonalLoop=1;jettySize=auto;html=1;" edge="1" parent="1" source="5ejWRRyf0kLCTS8NGf_p-57" target="5ejWRRyf0kLCTS8NGf_p-58">
          <mxGeometry relative="1" as="geometry" />
        </mxCell>
        <mxCell id="5ejWRRyf0kLCTS8NGf_p-57" value="applyId获取所有面试数据" style="rounded=0;whiteSpace=wrap;html=1;" vertex="1" parent="1">
          <mxGeometry x="1210" y="730" width="120" height="40" as="geometry" />
        </mxCell>
        <mxCell id="5ejWRRyf0kLCTS8NGf_p-75" value="" style="edgeStyle=orthogonalEdgeStyle;rounded=0;orthogonalLoop=1;jettySize=auto;html=1;" edge="1" parent="1" source="5ejWRRyf0kLCTS8NGf_p-58" target="5ejWRRyf0kLCTS8NGf_p-60">
          <mxGeometry relative="1" as="geometry" />
        </mxCell>
        <mxCell id="5ejWRRyf0kLCTS8NGf_p-58" value="面试数据获取ArrangementId" style="rounded=0;whiteSpace=wrap;html=1;" vertex="1" parent="1">
          <mxGeometry x="1210" y="810" width="120" height="40" as="geometry" />
        </mxCell>
        <mxCell id="5ejWRRyf0kLCTS8NGf_p-78" value="" style="edgeStyle=orthogonalEdgeStyle;rounded=0;orthogonalLoop=1;jettySize=auto;html=1;" edge="1" parent="1" source="5ejWRRyf0kLCTS8NGf_p-59" target="5ejWRRyf0kLCTS8NGf_p-61">
          <mxGeometry relative="1" as="geometry" />
        </mxCell>
        <mxCell id="5ejWRRyf0kLCTS8NGf_p-59" value="组装返回值model" style="rounded=0;whiteSpace=wrap;html=1;" vertex="1" parent="1">
          <mxGeometry x="1210" y="970" width="120" height="40" as="geometry" />
        </mxCell>
        <mxCell id="5ejWRRyf0kLCTS8NGf_p-77" value="" style="edgeStyle=orthogonalEdgeStyle;rounded=0;orthogonalLoop=1;jettySize=auto;html=1;" edge="1" parent="1" source="5ejWRRyf0kLCTS8NGf_p-60" target="5ejWRRyf0kLCTS8NGf_p-59">
          <mxGeometry relative="1" as="geometry" />
        </mxCell>
        <mxCell id="5ejWRRyf0kLCTS8NGf_p-60" value="arrangementId获取面试安排数据" style="rounded=0;whiteSpace=wrap;html=1;" vertex="1" parent="1">
          <mxGeometry x="1210" y="890" width="120" height="40" as="geometry" />
        </mxCell>
        <mxCell id="5ejWRRyf0kLCTS8NGf_p-79" value="" style="edgeStyle=orthogonalEdgeStyle;rounded=0;orthogonalLoop=1;jettySize=auto;html=1;" edge="1" parent="1" source="5ejWRRyf0kLCTS8NGf_p-61" target="5ejWRRyf0kLCTS8NGf_p-62">
          <mxGeometry relative="1" as="geometry" />
        </mxCell>
        <mxCell id="5ejWRRyf0kLCTS8NGf_p-61" value="返回结果" style="rounded=0;whiteSpace=wrap;html=1;" vertex="1" parent="1">
          <mxGeometry x="1210" y="1050" width="120" height="40" as="geometry" />
        </mxCell>
        <mxCell id="5ejWRRyf0kLCTS8NGf_p-62" value="结束" style="rounded=1;whiteSpace=wrap;html=1;" vertex="1" parent="1">
          <mxGeometry x="1210" y="1125" width="120" height="40" as="geometry" />
        </mxCell>
        <mxCell id="5ejWRRyf0kLCTS8NGf_p-85" value="" style="edgeStyle=orthogonalEdgeStyle;rounded=0;orthogonalLoop=1;jettySize=auto;html=1;" edge="1" parent="1" source="5ejWRRyf0kLCTS8NGf_p-83" target="5ejWRRyf0kLCTS8NGf_p-84">
          <mxGeometry relative="1" as="geometry" />
        </mxCell>
        <mxCell id="5ejWRRyf0kLCTS8NGf_p-83" value="获取当前申请下已完成面试评价&amp;amp;评价表" style="rounded=1;whiteSpace=wrap;html=1;" vertex="1" parent="1">
          <mxGeometry x="1530" y="580" width="120" height="40" as="geometry" />
        </mxCell>
        <mxCell id="5ejWRRyf0kLCTS8NGf_p-91" value="" style="edgeStyle=orthogonalEdgeStyle;rounded=0;orthogonalLoop=1;jettySize=auto;html=1;" edge="1" parent="1" source="5ejWRRyf0kLCTS8NGf_p-84" target="5ejWRRyf0kLCTS8NGf_p-88">
          <mxGeometry relative="1" as="geometry" />
        </mxCell>
        <mxCell id="5ejWRRyf0kLCTS8NGf_p-84" value="applyId获取评价结果非空的面试评价数据" style="rounded=0;whiteSpace=wrap;html=1;" vertex="1" parent="1">
          <mxGeometry x="1530" y="660" width="120" height="40" as="geometry" />
        </mxCell>
        <mxCell id="5ejWRRyf0kLCTS8NGf_p-86" value="评价结果非空即&lt;br&gt;评价状态已完成" style="text;html=1;strokeColor=#6c8ebf;fillColor=#dae8fc;align=center;verticalAlign=middle;whiteSpace=wrap;rounded=0;dashed=1;" vertex="1" parent="1">
          <mxGeometry x="1100" y="660" width="100" height="40" as="geometry" />
        </mxCell>
        <mxCell id="5ejWRRyf0kLCTS8NGf_p-87" value="评价结果非空即&lt;br&gt;评价状态已完成" style="text;html=1;strokeColor=#6c8ebf;fillColor=#dae8fc;align=center;verticalAlign=middle;whiteSpace=wrap;rounded=0;dashed=1;" vertex="1" parent="1">
          <mxGeometry x="1410" y="660" width="100" height="40" as="geometry" />
        </mxCell>
        <mxCell id="5ejWRRyf0kLCTS8NGf_p-92" value="" style="edgeStyle=orthogonalEdgeStyle;rounded=0;orthogonalLoop=1;jettySize=auto;html=1;" edge="1" parent="1" source="5ejWRRyf0kLCTS8NGf_p-88" target="5ejWRRyf0kLCTS8NGf_p-89">
          <mxGeometry relative="1" as="geometry" />
        </mxCell>
        <mxCell id="5ejWRRyf0kLCTS8NGf_p-88" value="评价数据获取到面试评价表Id" style="rounded=0;whiteSpace=wrap;html=1;" vertex="1" parent="1">
          <mxGeometry x="1530" y="745" width="120" height="40" as="geometry" />
        </mxCell>
        <mxCell id="5ejWRRyf0kLCTS8NGf_p-89" value="评价表Id获取评价表、维度等" style="rounded=0;whiteSpace=wrap;html=1;" vertex="1" parent="1">
          <mxGeometry x="1530" y="825" width="120" height="40" as="geometry" />
        </mxCell>
        <mxCell id="5ejWRRyf0kLCTS8NGf_p-90" value="组装返回数据" style="rounded=0;whiteSpace=wrap;html=1;" vertex="1" parent="1">
          <mxGeometry x="1530" y="915" width="120" height="40" as="geometry" />
        </mxCell>
        <mxCell id="5ejWRRyf0kLCTS8NGf_p-93" value="applyId获取面试" style="rounded=0;whiteSpace=wrap;html=1;" vertex="1" parent="1">
          <mxGeometry x="1700" y="660" width="120" height="40" as="geometry" />
        </mxCell>
        <mxCell id="5ejWRRyf0kLCTS8NGf_p-94" value="面试获取面试日程" style="rounded=0;whiteSpace=wrap;html=1;" vertex="1" parent="1">
          <mxGeometry x="1700" y="740" width="120" height="40" as="geometry" />
        </mxCell>
        <mxCell id="5ejWRRyf0kLCTS8NGf_p-101" style="edgeStyle=none;curved=1;orthogonalLoop=1;jettySize=auto;html=1;entryX=0;entryY=0.5;entryDx=0;entryDy=0;" edge="1" parent="1" source="5ejWRRyf0kLCTS8NGf_p-95" target="5ejWRRyf0kLCTS8NGf_p-96">
          <mxGeometry relative="1" as="geometry" />
        </mxCell>
        <mxCell id="5ejWRRyf0kLCTS8NGf_p-102" value="1：n" style="edgeLabel;html=1;align=center;verticalAlign=middle;resizable=0;points=[];" vertex="1" connectable="0" parent="5ejWRRyf0kLCTS8NGf_p-101">
          <mxGeometry x="-0.1247" y="2" relative="1" as="geometry">
            <mxPoint as="offset" />
          </mxGeometry>
        </mxCell>
        <mxCell id="5ejWRRyf0kLCTS8NGf_p-95" value="面试安排" style="rounded=0;whiteSpace=wrap;html=1;" vertex="1" parent="1">
          <mxGeometry x="1040" y="1330" width="120" height="60" as="geometry" />
        </mxCell>
        <mxCell id="5ejWRRyf0kLCTS8NGf_p-100" value="1：n" style="edgeStyle=none;curved=1;orthogonalLoop=1;jettySize=auto;html=1;entryX=0;entryY=0.5;entryDx=0;entryDy=0;" edge="1" parent="1" source="5ejWRRyf0kLCTS8NGf_p-96" target="5ejWRRyf0kLCTS8NGf_p-97">
          <mxGeometry relative="1" as="geometry" />
        </mxCell>
        <mxCell id="5ejWRRyf0kLCTS8NGf_p-96" value="面试日程" style="rounded=0;whiteSpace=wrap;html=1;" vertex="1" parent="1">
          <mxGeometry x="1330" y="1330" width="120" height="60" as="geometry" />
        </mxCell>
        <mxCell id="5ejWRRyf0kLCTS8NGf_p-97" value="面试" style="rounded=0;whiteSpace=wrap;html=1;" vertex="1" parent="1">
          <mxGeometry x="1620" y="1330" width="120" height="60" as="geometry" />
        </mxCell>
        <mxCell id="5ejWRRyf0kLCTS8NGf_p-104" value="1：n" style="edgeStyle=none;curved=1;orthogonalLoop=1;jettySize=auto;html=1;entryX=0.5;entryY=1;entryDx=0;entryDy=0;" edge="1" parent="1" source="5ejWRRyf0kLCTS8NGf_p-103" target="5ejWRRyf0kLCTS8NGf_p-97">
          <mxGeometry relative="1" as="geometry" />
        </mxCell>
        <mxCell id="5ejWRRyf0kLCTS8NGf_p-103" value="申请" style="rounded=0;whiteSpace=wrap;html=1;fillColor=#ffffff;" vertex="1" parent="1">
          <mxGeometry x="1620" y="1520" width="120" height="60" as="geometry" />
        </mxCell>
      </root>
    </mxGraphModel>
  </diagram>
</mxfile>
